<svg fill="#000000" xmlns="http://www.w3.org/2000/svg" width="64px" height="64px" viewBox="0 0 4.16 4.16" enable-background="new 0 0 52 52" xml:space="preserve"><path d="M1.6 3.52c0 -0.264 0.216 -0.48 0.48 -0.48s0.48 0.216 0.48 0.48 -0.216 0.48 -0.48 0.48 -0.48 -0.216 -0.48 -0.48zm0 -1.44c0 -0.264 0.216 -0.48 0.48 -0.48s0.48 0.216 0.48 0.48 -0.216 0.48 -0.48 0.48 -0.48 -0.216 -0.48 -0.48zm0 -1.44c0 -0.264 0.216 -0.48 0.48 -0.48s0.48 0.216 0.48 0.48 -0.216 0.48 -0.48 0.48 -0.48 -0.216 -0.48 -0.48z"/></svg>